<?xml version="1.0" standalone="no"?>
<!DOCTYPE svg PUBLIC "-//W3C//DTD SVG 20010904//EN"
 "http://www.w3.org/TR/2001/REC-SVG-20010904/DTD/svg10.dtd">
<svg version="1.0" xmlns="http://www.w3.org/2000/svg"
 width="512.000000pt" height="512.000000pt" viewBox="0 0 512.000000 512.000000"
 preserveAspectRatio="xMidYMid meet">
<metadata>
Created by potrace 1.14, written by Peter Selinger 2001-2017
</metadata>
<g transform="translate(0.000000,512.000000) scale(0.100000,-0.100000)"
fill="#000000" stroke="none">
<path d="M2370 4649 c-727 -74 -1361 -513 -1678 -1161 -92 -187 -147 -359
-187 -583 -22 -125 -31 -404 -16 -546 48 -462 251 -901 568 -1230 l86 -89
-245 0 c-256 0 -268 -2 -268 -45 0 -44 9 -45 326 -45 262 0 303 -2 315 -16 7
-8 66 -51 132 -95 132 -89 312 -180 457 -233 l95 -35 -561 0 c-422 -1 -563 -4
-572 -13 -20 -20 -14 -56 11 -73 21 -13 202 -15 1641 -13 1588 3 1618 3 1632
22 18 25 18 41 -2 60 -14 14 -71 16 -472 16 l-457 1 95 34 c183 66 443 208
574 314 38 30 41 31 145 31 112 0 131 6 131 45 0 33 -20 45 -79 45 l-54 0 94
98 c151 155 254 301 352 497 98 197 159 384 195 600 l19 110 223 3 c144 1 228
6 237 13 19 17 16 57 -6 69 -12 6 -106 10 -236 10 l-217 0 7 58 c9 83 -12 338
-40 479 -175 867 -868 1526 -1745 1658 -131 20 -377 27 -500 14z m453 -104
c175 -23 491 -110 531 -146 5 -4 -28 -26 -73 -48 l-81 -41 -143 0 c-105 0
-148 -4 -162 -14 -11 -7 -53 -81 -94 -164 -61 -125 -71 -153 -62 -170 7 -14
48 -32 132 -61 l122 -41 140 36 139 35 92 -31 c51 -17 179 -48 286 -70 l194
-41 48 31 c26 16 70 44 97 61 l50 31 33 -38 c18 -21 46 -52 61 -68 50 -55 150
-208 141 -216 -5 -4 -92 -35 -194 -68 l-185 -61 -193 33 c-105 18 -194 35
-196 37 -2 2 -33 50 -70 107 l-66 102 -231 0 -232 0 -111 -107 c-61 -59 -117
-115 -124 -124 -10 -15 -6 -62 23 -266 20 -136 40 -257 44 -269 7 -15 78 -50
270 -133 l260 -111 138 34 138 35 87 -57 88 -57 0 -137 0 -138 140 -273 140
-274 0 -144 0 -144 85 -85 c47 -47 85 -90 85 -96 0 -7 -29 -47 -64 -91 -257
-315 -641 -560 -1037 -662 -195 -50 -326 -64 -554 -58 -316 8 -533 59 -800
186 -159 76 -262 141 -405 256 -598 480 -865 1285 -675 2036 44 174 41 173 89
29 l42 -125 174 -118 c96 -65 183 -123 194 -130 17 -12 14 -17 -38 -72 l-56
-60 0 -118 0 -117 74 -148 c41 -81 80 -153 88 -158 7 -6 65 -21 128 -33 63
-13 136 -27 163 -33 l47 -10 0 -342 0 -342 46 -114 c25 -63 48 -123 49 -132 6
-31 42 -103 57 -116 9 -7 67 -30 129 -52 160 -54 153 -61 159 165 l5 177 135
101 135 102 3 110 3 110 141 142 141 141 33 169 c40 198 41 228 15 243 -11 5
-78 10 -150 10 l-130 0 -88 146 c-48 81 -99 159 -111 175 l-24 29 -241 0 -242
0 -70 138 c-47 93 -76 138 -89 140 -12 3 -43 -20 -92 -69 l-74 -73 0 90 0 90
-70 69 -71 70 3 80 3 80 225 31 225 31 185 112 185 111 104 173 104 174 97 31
c53 18 103 38 112 45 16 13 88 213 88 246 0 10 -7 24 -15 31 -8 6 -110 28
-227 49 -200 35 -216 39 -267 74 l-54 36 26 10 c84 32 288 77 432 94 82 10
356 5 458 -8z m-925 -199 l97 -64 175 -27 c96 -15 179 -31 184 -36 4 -4 -1
-36 -13 -71 l-21 -64 -99 -32 c-55 -18 -105 -40 -112 -48 -7 -9 -58 -90 -113
-182 l-101 -166 -162 -97 -162 -97 -208 -31 c-114 -17 -226 -34 -248 -37 -70
-12 -75 -21 -75 -157 l0 -119 70 -73 71 -72 -3 -87 -3 -86 -165 110 -165 110
-52 157 c-29 87 -53 166 -53 175 0 29 102 225 168 323 198 296 466 530 785
686 55 27 102 49 104 49 2 0 47 -29 101 -64z m1679 -58 c111 -65 252 -169 333
-245 l62 -59 -72 -48 -73 -48 -166 33 c-91 18 -211 47 -265 66 -55 18 -113 33
-129 33 -15 0 -83 -14 -150 -31 l-122 -31 -72 23 c-40 12 -73 26 -73 31 0 4
21 51 47 103 l48 95 130 1 130 0 130 64 c72 35 135 64 142 64 7 1 52 -22 100
-51z m-197 -733 c34 -52 68 -99 74 -104 7 -6 113 -27 237 -48 l224 -37 200 67
c110 37 204 67 208 67 5 0 30 -46 56 -102 223 -475 241 -1048 50 -1544 -37
-97 -115 -253 -164 -329 l-37 -58 -69 69 -69 68 0 138 0 138 -140 280 -140
280 0 144 c0 107 -3 148 -13 158 -8 7 -63 46 -124 86 l-110 73 -143 -36 -143
-36 -226 97 c-124 53 -227 97 -228 98 -1 0 -16 100 -33 220 l-31 219 93 94 93
93 186 0 186 0 63 -95z m-1890 -835 l60 -120 249 0 248 0 94 -157 c51 -87 103
-168 116 -180 20 -21 31 -23 139 -23 115 0 116 0 111 -22 -3 -13 -15 -75 -28
-138 l-22 -115 -143 -145 -143 -145 -3 -105 -3 -105 -137 -103 -138 -102 0
-156 c0 -143 -1 -155 -17 -150 -10 2 -37 10 -61 17 -23 7 -46 17 -51 23 -5 6
-37 80 -70 164 l-61 152 0 359 c0 289 -3 361 -14 370 -7 6 -80 24 -162 41 -82
16 -159 32 -172 35 -16 4 -37 35 -82 125 l-60 120 0 97 0 98 142 142 c79 79
144 143 145 143 2 0 30 -54 63 -120z"/>
<path d="M16 1024 c-9 -8 -16 -23 -16 -33 0 -37 18 -41 212 -41 175 0 188 1
198 19 14 27 13 37 -6 55 -23 24 -365 24 -388 0z"/>
<path d="M4342 558 c-19 -19 -14 -55 10 -72 18 -13 54 -16 186 -16 161 0 163
0 188 25 24 24 25 28 11 48 -14 21 -21 22 -198 25 -135 2 -188 -1 -197 -10z"/>
</g>
</svg>
